<?xml version="1.0" encoding="UTF-8" standalone="no"?>
<!DOCTYPE svg PUBLIC "-//W3C//DTD SVG 1.1//EN" "http://www.w3.org/Graphics/SVG/1.1/DTD/svg11.dtd">
<svg version="1.1" xmlns="http://www.w3.org/2000/svg" xmlns:xlink="http://www.w3.org/1999/xlink" preserveAspectRatio="xMidYMid meet" viewBox="0 0 540 200" width="540" height="200"><defs><path d="M29.26 73.19L29.51 72.84L29.79 72.49L30.11 72.13L30.45 71.75L30.83 71.37L31.23 70.98L31.67 70.58L32.14 70.16L32.64 69.74L33.17 69.31L33.74 68.87L34.33 68.42L34.96 67.96L35.62 67.48L36.3 67L37.02 66.51L37.78 66.01L38.56 65.5L39.37 64.98L40.22 64.45L41.09 63.91L42 63.36L42.94 62.8L43.91 62.23L44.91 61.65L45.94 61.06L47.01 60.46L48.1 59.85L49.23 59.24L50.39 58.61L51.57 57.97L52.8 57.32L54.05 56.66L55.33 56L56.64 55.32L57.99 54.63L59.37 53.93L78.74 31.46L78.74 5.62L96.49 40.45L114.25 59.55L123.93 92.13L115.68 117.02L132.92 97.75L147.53 121.35L150.9 152.81L132.92 176.4L113.82 194.38L108.2 166.29L94.72 170.79L88.68 149.92L67.58 173.5L66.63 176.4L66.63 189.89L49.78 189.89L51.17 188.35L17.4 158.43L9.33 125.84L17.4 98.88L28.7 74.16L28.85 73.84L29.04 73.52L29.04 73.52L29.26 73.19Z" id="a2kZYoLW8D"></path></defs><g><g><g><g><use xlink:href="#a2kZYoLW8D" opacity="1" fill-opacity="0" stroke="#000000" stroke-width="1" stroke-opacity="1"></use></g></g></g></g></svg>